<svg xmlns="http://www.w3.org/2000/svg" viewBox="0 0 713.15 156"><defs><style>.cls-1{fill:#2a6eb4;}.cls-2{fill:#266bb3;}</style></defs><g id="Layer_2" data-name="Layer 2"><g id="Layer_1-2" data-name="Layer 1"><path class="cls-1" d="M28.42,0A208.42,208.42,0,0,0,0,30.65V10.11Q4.57,4.9,9.46,0Z"/><path class="cls-1" d="M70.28,0A183.73,183.73,0,0,0,0,78.87V51.76A196.65,196.65,0,0,1,47.33,0Z"/><path class="cls-1" d="M135.13,0A159,159,0,0,0,7,156H0V110.81A172.39,172.39,0,0,1,93.46,0Z"/><path class="cls-1" d="M166,9V21A135,135,0,0,0,31,156H19A147,147,0,0,1,166,9Z"/><path class="cls-1" d="M166,33V45A111,111,0,0,0,55,156H43A123,123,0,0,1,166,33Z"/><path class="cls-1" d="M166,57V70h-.5A86.49,86.49,0,0,0,79,156H67A99,99,0,0,1,166,57Z"/><path class="cls-1" d="M166,81V94a62,62,0,0,0-62,62H91A75,75,0,0,1,166,81Z"/><path class="cls-1" d="M166,107v12a37,37,0,0,0-37,37H117A49,49,0,0,1,166,107Z"/><path class="cls-1" d="M166,130v11a15,15,0,0,0-15,15H140A26,26,0,0,1,166,130Z"/><path class="cls-2" d="M193.51,70.67a16.63,16.63,0,0,1-16.4-16.4V21.46A15.55,15.55,0,0,1,182,10.15a15.73,15.73,0,0,1,11.47-4.92h49.1v8.11h-32.8a7,7,0,0,0-3,.7,9.56,9.56,0,0,0-4.45,4.46,6.69,6.69,0,0,0-.7,3V54.27a7.17,7.17,0,0,0,.7,3.11A9.48,9.48,0,0,0,204.18,60a9.3,9.3,0,0,0,2.6,1.84,6.86,6.86,0,0,0,3,.7h32.8v8.12Z"/><path class="cls-2" d="M325,54.27a15.78,15.78,0,0,1-5,11.47,15.6,15.6,0,0,1-11.37,4.93H267.69a16.63,16.63,0,0,1-16.4-16.4V37.87a15.42,15.42,0,0,1,4.92-11.31,15.73,15.73,0,0,1,11.48-5.1h40.92a15.29,15.29,0,0,1,11.31,5.1q5.1,5,5.1,11.31Zm-24.69-16.4a8.42,8.42,0,0,0-8.12-8.12H284a7.38,7.38,0,0,0-3,.64,8.87,8.87,0,0,0-4.45,4.37,7.14,7.14,0,0,0-.7,3.11v16.4a7.17,7.17,0,0,0,.7,3.11A9.41,9.41,0,0,0,281,61.85a6.85,6.85,0,0,0,3,.7h8.23A7.74,7.74,0,0,0,297.92,60a8.19,8.19,0,0,0,2.41-5.76Z"/><path class="cls-2" d="M349.09,70.67a16.72,16.72,0,0,1-16.4-16.4V37.87a15.55,15.55,0,0,1,4.92-11.31,15.85,15.85,0,0,1,11.48-5.1h32.69V5.23h24.64V70.67Zm32.69-40.92H365.32a7.45,7.45,0,0,0-3,.64,8.35,8.35,0,0,0-2.6,1.76,9.07,9.07,0,0,0-1.82,2.61,7.14,7.14,0,0,0-.7,3.11v16.4a7.17,7.17,0,0,0,.7,3.11A9.59,9.59,0,0,0,359.73,60a8.76,8.76,0,0,0,2.6,1.84,6.92,6.92,0,0,0,3,.7h16.46Z"/><path class="cls-2" d="M441.57,54.27a10.8,10.8,0,0,0,2.69,5.82,7.25,7.25,0,0,0,5.49,2.46h32.8v8.12H433.46a16.63,16.63,0,0,1-16.41-16.4V37.87A15.39,15.39,0,0,1,422,26.56a15.72,15.72,0,0,1,11.48-5.1h40.92a15.33,15.33,0,0,1,11.31,5.1,15.58,15.58,0,0,1,5.09,11.31v16.4Zm24.52-16.4A8.42,8.42,0,0,0,458,29.75h-8.23a7.39,7.39,0,0,0-3,.64,9,9,0,0,0-2.6,1.76,9.16,9.16,0,0,0-1.85,2.61,7.28,7.28,0,0,0-.7,3.11v8.28h24.52Z"/><path class="cls-2" d="M262.24,137.06a18,18,0,0,1-5.75,13.09,17.81,17.81,0,0,1-13,5.62H178.11V81.1h63.5a17.84,17.84,0,0,1,13,5.68q5.69,5.7,5.69,12.84v2q0,10.8-9.9,16.36a19.74,19.74,0,0,1,8.43,7,17.11,17.11,0,0,1,3.45,10.29Zm-30-37.44a8,8,0,0,0-.77-3.38,10.18,10.18,0,0,0-2.07-3,10.75,10.75,0,0,0-3-2.11,8.08,8.08,0,0,0-3.48-.8h-16.8V113.8H223a8.07,8.07,0,0,0,3.48-.79,11,11,0,0,0,3-2.11,10.06,10.06,0,0,0,2.07-3,8.53,8.53,0,0,0,.77-3.55Zm1.79,32.71a8.33,8.33,0,0,0-.74-3.39,10.56,10.56,0,0,0-2-3,9.73,9.73,0,0,0-2.94-2.1,8.2,8.2,0,0,0-3.6-.8H206.15v23.44h18.66a8.86,8.86,0,0,0,6.51-2.87,9.43,9.43,0,0,0,2.75-6.58Z"/><path class="cls-2" d="M318.45,118.34v-9.26h-9.39a8.45,8.45,0,0,0-3.45.73,9.84,9.84,0,0,0-3,2,10,10,0,0,0-2.08,3,8.55,8.55,0,0,0-.76,3.55v37.43h-28V118.34a17.58,17.58,0,0,1,5.62-12.9,17.92,17.92,0,0,1,13.09-5.82h56v18.72Z"/><path class="cls-2" d="M437.9,137.06a18,18,0,0,1-5.75,13.09,17.8,17.8,0,0,1-13,5.62h-46.7a19,19,0,0,1-18.72-18.71V118.34a17.59,17.59,0,0,1,5.63-12.9,17.92,17.92,0,0,1,13.09-5.82h46.7a17.47,17.47,0,0,1,12.9,5.82q5.81,5.75,5.81,12.9Zm-28.17-18.72a9.62,9.62,0,0,0-9.26-9.26h-9.39a8.45,8.45,0,0,0-3.45.73,9.84,9.84,0,0,0-3,2,10.24,10.24,0,0,0-2.11,3,8.29,8.29,0,0,0-.8,3.55v18.72a8.25,8.25,0,0,0,.8,3.54,10.8,10.8,0,0,0,5.08,5.11,7.79,7.79,0,0,0,3.45.8h9.39a8.85,8.85,0,0,0,6.51-2.87,9.43,9.43,0,0,0,2.75-6.58Z"/><path class="cls-2" d="M505.93,155.77v-14a9.24,9.24,0,0,0-2.81-6.51,8.62,8.62,0,0,0-6.51-2.94H478v23.44h-28V81.1h28v42h18.66a8.25,8.25,0,0,0,3.54-.8,10.45,10.45,0,0,0,3-2.08,9.94,9.94,0,0,0,2-3,8.07,8.07,0,0,0,.77-3.42V99.62H534v11.25a17.12,17.12,0,0,1-3.13,9.9,20.88,20.88,0,0,1-7.86,7,20.71,20.71,0,0,1,7.86,6.9,16.83,16.83,0,0,1,3.13,9.84v11.24Z"/><path class="cls-2" d="M571,137.06a12.24,12.24,0,0,0,3.07,6.64,8.26,8.26,0,0,0,6.26,2.81h37.43v9.26h-56A19,19,0,0,1,543,137.06V118.34a17.61,17.61,0,0,1,5.62-12.9q5.76-5.82,13.1-5.82h46.69a17.47,17.47,0,0,1,12.91,5.82q5.8,5.75,5.81,12.9v18.72Zm28-18.72a9.62,9.62,0,0,0-9.26-9.26h-9.39a8.42,8.42,0,0,0-3.45.73,9.84,9.84,0,0,0-3,2,10.24,10.24,0,0,0-2.11,3,8.29,8.29,0,0,0-.8,3.55v9.45h28Z"/><path class="cls-2" d="M685.11,118.34v-9.26h-9.39a8.38,8.38,0,0,0-3.45.73,9.84,9.84,0,0,0-3,2,9.61,9.61,0,0,0-2.08,3,8.56,8.56,0,0,0-.77,3.55v37.43h-28V118.34a17.61,17.61,0,0,1,5.62-12.9q5.76-5.82,13.1-5.82h56v18.72Z"/></g></g></svg>